<?xml version="1.0" encoding="UTF-8"?>
<svg width="24px" height="20px" viewBox="0 0 24 20" version="1.1" xmlns="http://www.w3.org/2000/svg" xmlns:xlink="http://www.w3.org/1999/xlink">
    <!-- Generator: Sketch 63.1 (92452) - https://sketch.com -->
    <title>Q</title>
    <desc>Created with Sketch.</desc>
    <g id="Page-2" stroke="none" stroke-width="1" fill="none" fill-rule="evenodd">
        <g id="Artboard-Copy-7" transform="translate(-1394.000000, -119.000000)" fill="#AF282A" fill-rule="nonzero">
            <path d="M1413.73438,133.96875 C1414.45312,133.96875 1414.92188,133.609375 1415.14062,132.890625 L1417.95312,124.125 C1418.04688,123.75 1418,123.4375 1417.8125,123.1875 C1417.59375,122.875 1417.3125,122.71875 1416.96875,122.71875 L1403.23438,122.71875 C1402.95312,122.71875 1402.71094,122.820312 1402.50781,123.023438 C1402.30469,123.226562 1402.20312,123.484375 1402.20312,123.796875 C1402.20312,124.078125 1402.30469,124.320312 1402.50781,124.523438 C1402.71094,124.726562 1402.95312,124.828125 1403.23438,124.828125 L1415.51562,124.828125 L1413.3125,131.859375 L1403.375,131.859375 L1399.15625,120.5625 C1398.9375,120.09375 1398.59375,119.859375 1398.125,119.859375 L1395.03125,119.859375 C1394.75,119.859375 1394.50781,119.960938 1394.30469,120.164062 C1394.10156,120.367188 1394,120.609375 1394,120.890625 C1394,121.203125 1394.10156,121.460938 1394.30469,121.664062 C1394.50781,121.867188 1394.75,121.96875 1395.03125,121.96875 L1397.42188,121.96875 L1401.54688,132.984375 C1401.76562,133.640625 1402.23438,133.96875 1402.95312,133.96875 L1413.73438,133.96875 Z M1403.51562,138.75 C1403.95312,138.75 1404.34375,138.578125 1404.6875,138.234375 C1405.03125,137.890625 1405.20312,137.484375 1405.20312,137.015625 C1405.20312,136.515625 1405.03125,136.125 1404.6875,135.84375 C1404.34375,135.5 1403.95312,135.328125 1403.51562,135.328125 C1403.04688,135.328125 1402.64062,135.5 1402.29688,135.84375 C1401.95312,136.125 1401.78125,136.515625 1401.78125,137.015625 C1401.78125,137.484375 1401.95312,137.890625 1402.29688,138.234375 C1402.64062,138.578125 1403.04688,138.75 1403.51562,138.75 Z M1412.84375,138.75 C1413.3125,138.75 1413.71875,138.578125 1414.0625,138.234375 C1414.40625,137.890625 1414.57812,137.484375 1414.57812,137.015625 C1414.57812,136.515625 1414.40625,136.125 1414.0625,135.84375 C1413.71875,135.5 1413.3125,135.328125 1412.84375,135.328125 C1412.34375,135.328125 1411.95312,135.5 1411.67188,135.84375 C1411.32812,136.125 1411.15625,136.515625 1411.15625,137.015625 C1411.15625,137.484375 1411.32812,137.890625 1411.67188,138.234375 C1411.95312,138.578125 1412.34375,138.75 1412.84375,138.75 Z" id="Q"></path>
        </g>
    </g>
</svg>