<?xml version="1.0" encoding="UTF-8"?>
<svg width="18px" height="18px" viewBox="0 0 18 18" version="1.1" xmlns="http://www.w3.org/2000/svg" xmlns:xlink="http://www.w3.org/1999/xlink">
    <!-- Generator: Sketch 63.1 (92452) - https://sketch.com -->
    <title></title>
    <desc>Created with Sketch.</desc>
    <g id="Page-2" stroke="none" stroke-width="1" fill="none" fill-rule="evenodd">
        <g id="Artboard-Copy-7" transform="translate(-942.000000, -41.000000)" fill="#AA2327" fill-rule="nonzero">
            <g id="Group-4" transform="translate(942.000000, 36.000000)">
                <path d="M9,23 C11.484375,23 13.6054688,22.1210938 15.3632812,20.3632812 C17.1210938,18.6054688 18,16.484375 18,14 C18,11.515625 17.1210938,9.39453125 15.3632812,7.63671875 C13.6054688,5.87890625 11.484375,5 9,5 C6.515625,5 4.39453125,5.87890625 2.63671875,7.63671875 C0.87890625,9.39453125 0,11.515625 0,14 C0,16.484375 0.87890625,18.6054688 2.63671875,20.3632812 C4.39453125,22.1210938 6.515625,23 9,23 Z M9,21.4179688 C6.9375,21.4179688 5.18554688,20.6972656 3.74414062,19.2558594 C2.30273438,17.8144531 1.58203125,16.0625 1.58203125,14 C1.58203125,11.9375 2.30273438,10.1855469 3.74414062,8.74414062 C5.18554688,7.30273438 6.9375,6.58203125 9,6.58203125 C11.0625,6.58203125 12.8144531,7.30273438 14.2558594,8.74414062 C15.6972656,10.1855469 16.4179688,11.9375 16.4179688,14 C16.4179688,16.0625 15.6914062,17.8203125 14.2382812,19.2734375 C12.8085938,20.703125 11.0625,21.4179688 9,21.4179688 Z M9,16.4609375 C9.2109375,16.4609375 9.39257812,16.3847656 9.54492188,16.2324219 C9.69726562,16.0800781 9.7734375,15.8984375 9.7734375,15.6875 L9.7734375,15.6875 L9.7734375,15.2304688 L9.87890625,15.2304688 C10.5820312,15.2304688 11.203125,15.0195312 11.7421875,14.5976562 C12.28125,14.1757812 12.5976562,13.53125 12.6914062,12.6640625 C12.8320313,11.609375 12.5742188,10.71875 11.9179688,9.9921875 C11.2382812,9.21875 10.2421875,8.83203125 8.9296875,8.83203125 C7.7109375,8.83203125 6.83789063,9.15429688 6.31054688,9.79882812 C5.78320313,10.4433594 5.51953125,11.0703125 5.51953125,11.6796875 C5.51953125,11.890625 5.6015625,12.0722656 5.765625,12.2246094 C5.9296875,12.3769531 6.1171875,12.453125 6.328125,12.453125 C6.5390625,12.453125 6.72070313,12.3769531 6.87304688,12.2246094 C7.02539063,12.0722656 7.1015625,11.890625 7.1015625,11.6796875 C7.1015625,11.6328125 7.10742188,11.5742188 7.11914063,11.5039062 C7.13085938,11.4335938 7.171875,11.328125 7.2421875,11.1875 C7.3125,11.046875 7.40625,10.9238281 7.5234375,10.8183594 C7.640625,10.7128906 7.82226563,10.6191406 8.06835938,10.5371094 C8.31445312,10.4550781 8.6015625,10.4140625 8.9296875,10.4140625 C9.7265625,10.4140625 10.3242188,10.6132812 10.7226562,11.0117188 C11.0742188,11.4101562 11.2148438,11.9023438 11.1445312,12.4882812 C11.0273438,13.2617188 10.6054688,13.6484375 9.87890625,13.6484375 C8.77734375,13.6484375 8.2265625,14.1171875 8.2265625,15.0546875 L8.2265625,15.0546875 L8.2265625,15.6875 C8.2265625,15.8984375 8.30273438,16.0800781 8.45507812,16.2324219 C8.60742188,16.3847656 8.7890625,16.4609375 9,16.4609375 Z M8.9296875,19.0976562 C9.2109375,19.0976562 9.4453125,18.9921875 9.6328125,18.78125 C9.8203125,18.59375 9.9140625,18.3710938 9.9140625,18.1132812 C9.9140625,17.8320312 9.8203125,17.5976562 9.6328125,17.4101562 C9.4453125,17.2226562 9.2109375,17.1289062 8.9296875,17.1289062 C8.671875,17.1289062 8.44921875,17.2226562 8.26171875,17.4101562 C8.07421875,17.5976562 7.98046875,17.8320312 7.98046875,18.1132812 C7.98046875,18.3945312 8.07421875,18.6171875 8.26171875,18.78125 C8.47265625,18.9921875 8.6953125,19.0976562 8.9296875,19.0976562 Z" id=""></path>
            </g>
        </g>
    </g>
</svg>