<?xml version="1.0" encoding="UTF-8"?>
<svg width="470px" height="50px" viewBox="0 0 470 50" version="1.1" xmlns="http://www.w3.org/2000/svg" xmlns:xlink="http://www.w3.org/1999/xlink">
    <!-- Generator: Sketch 64 (93537) - https://sketch.com -->
    <title>sofia-logo</title>
    <desc>Created with Sketch.</desc>
    <g id="Page-1" stroke="none" stroke-width="1" fill="none" fill-rule="evenodd">
        <g id="Sofia_logo-01" transform="translate(-64.000000, -43.000000)" fill="#A02834">
            <g id="sofia-logo" transform="translate(64.415000, 43.256000)">
                <polyline id="Fill-1" points="372.963 14.431 372.963 9.485 328.086 9.485 328.086 48.808 337.422 48.808 337.422 31.62 372.144 31.62 372.144 26.673 337.422 26.673 337.422 14.431 372.963 14.431"></polyline>
                <polygon id="Fill-2" points="381.192 48.808 392.459 48.808 392.459 9.485 381.192 9.485"></polygon>
                <path d="M249.145,34.069 C248.937,33.356 248.648,32.684 248.28,32.067 C247.918,31.463 247.472,30.904 246.955,30.404 C246.074,29.547 244.991,28.877 243.65,28.355 C243.111,28.146 242.528,27.958 241.86,27.776 C241.273,27.619 240.673,27.487 240.074,27.369 C239.01,27.167 237.836,27.003 236.481,26.872 C235.881,26.812 235.281,26.759 234.681,26.721 C234.08,26.681 233.478,26.658 232.88,26.631 L222.13,26.182 L217.645,26.182 C216.141,26.182 214.639,26.155 213.18,26.101 C211.725,26.046 210.265,25.973 208.814,25.866 C208.091,25.816 207.37,25.753 206.649,25.672 C205.996,25.599 205.209,25.497 204.309,25.324 C203.368,25.142 202.649,24.928 202.098,24.671 C201.459,24.376 200.932,23.986 200.532,23.517 C200.315,23.264 200.133,22.98 199.982,22.682 C199.826,22.361 199.699,21.991 199.614,21.618 C199.533,21.247 199.482,20.859 199.467,20.425 C199.448,20.017 199.46,19.608 199.498,19.198 C199.583,18.331 199.796,17.621 200.138,17.092 C200.318,16.805 200.539,16.562 200.798,16.363 C201.041,16.18 201.335,16.017 201.681,15.872 C202.401,15.576 203.175,15.398 203.773,15.28 C204.429,15.148 205.124,15.04 205.967,14.937 C207.258,14.773 208.67,14.658 210.408,14.571 C211.746,14.505 213.209,14.467 214.871,14.443 C215.835,14.431 216.802,14.431 217.767,14.431 L219.353,14.431 C220.851,14.435 222.345,14.439 223.839,14.462 C225.324,14.483 226.816,14.52 228.302,14.583 C229.044,14.619 229.782,14.658 230.521,14.715 C231.371,14.782 232.071,14.868 232.724,14.972 C233.527,15.108 234.22,15.277 234.857,15.487 C235.261,15.623 235.624,15.772 235.927,15.931 C236.252,16.099 236.513,16.281 236.746,16.512 C236.973,16.734 237.184,17.01 237.357,17.317 C237.523,17.609 237.654,17.933 237.757,18.308 C237.947,18.976 238.04,19.74 238.04,20.637 L238.04,21.262 L248.351,21.262 L248.351,19.861 C248.351,19.701 248.351,19.537 248.349,19.382 C248.342,18.951 248.305,18.514 248.235,18.088 C248.098,17.231 247.838,16.429 247.448,15.693 C247.076,14.987 246.564,14.313 245.967,13.75 C245.447,13.252 244.824,12.796 244.113,12.383 C242.969,11.732 241.638,11.233 240.049,10.86 C239.346,10.697 238.654,10.564 237.964,10.454 C237.276,10.337 236.587,10.24 235.9,10.163 C234.688,10.018 233.37,9.906 231.753,9.808 C230.372,9.722 228.995,9.66 227.617,9.613 C225.121,9.527 222.411,9.485 219.332,9.485 C215.965,9.485 213.209,9.521 210.65,9.598 C209.2,9.644 207.751,9.702 206.304,9.788 C204.554,9.889 203.206,10.007 201.942,10.178 C200.285,10.396 198.83,10.693 197.493,11.069 C196.709,11.291 195.999,11.534 195.32,11.813 C194.536,12.138 193.847,12.496 193.22,12.917 C192.503,13.391 191.868,13.948 191.337,14.559 C190.789,15.191 190.344,15.9 190.002,16.663 C189.669,17.403 189.436,18.214 189.298,19.079 C189.23,19.503 189.189,19.934 189.163,20.378 C189.139,20.87 189.145,21.31 189.176,21.722 C189.248,22.614 189.486,23.521 189.86,24.348 C190.04,24.742 190.255,25.123 190.495,25.492 C190.744,25.866 191.019,26.209 191.322,26.505 C191.855,27.032 192.496,27.491 193.283,27.912 C193.898,28.242 194.586,28.542 195.38,28.827 C196.658,29.275 198.081,29.646 199.735,29.944 C201.071,30.19 202.489,30.389 204.067,30.548 C205.369,30.682 206.752,30.783 208.419,30.868 C209.869,30.945 211.316,31.005 212.766,31.04 C215.79,31.121 218.839,31.128 221.461,31.128 L223.627,31.128 C224.342,31.133 225.06,31.144 225.775,31.168 C227.212,31.214 228.647,31.293 230.082,31.393 C230.8,31.44 231.518,31.494 232.233,31.554 C233.08,31.63 233.73,31.714 234.344,31.815 C235.15,31.951 235.829,32.122 236.417,32.336 C236.78,32.464 237.074,32.598 237.333,32.749 C237.624,32.92 237.881,33.123 238.103,33.342 C238.339,33.582 238.54,33.856 238.704,34.155 C238.865,34.462 238.992,34.79 239.085,35.152 C239.17,35.495 239.222,35.858 239.247,36.255 C239.26,36.448 239.264,36.647 239.264,36.843 L239.264,37.465 C239.253,38.37 239.156,39.12 238.976,39.76 C238.926,39.938 238.865,40.11 238.798,40.286 C238.734,40.453 238.667,40.616 238.577,40.777 C238.435,41.042 238.241,41.274 237.969,41.513 C237.521,41.902 236.966,42.213 236.165,42.522 C235.567,42.744 234.901,42.934 234.123,43.094 C232.685,43.389 231.267,43.531 229.945,43.627 C228.532,43.732 227.088,43.803 225.638,43.834 C224.537,43.86 223.437,43.86 222.333,43.86 L214.083,43.87 L212.64,43.86 C210.99,43.854 209.627,43.81 208.349,43.732 C207.639,43.69 206.932,43.632 206.223,43.554 C205.448,43.464 204.766,43.358 204.132,43.222 C203.327,43.055 202.705,42.868 202.183,42.631 C201.55,42.338 201.064,41.972 200.664,41.465 C200.441,41.193 200.246,40.866 200.09,40.535 C199.937,40.2 199.813,39.83 199.713,39.436 C199.54,38.723 199.46,37.959 199.46,37.041 L199.455,35.585 L189.146527,35.585 L189.146527,38.098 C189.146527,38.311 189.146527,38.521 189.153,38.732 C189.169,39.319 189.23,39.857 189.34,40.375 C189.46,40.929 189.641,41.478 189.863,41.976 C190.089,42.467 190.369,42.938 190.693,43.366 C191.284,44.149 192.041,44.84 192.949,45.415 C193.697,45.899 194.539,46.312 195.518,46.67 C196.309,46.958 197.157,47.206 198.189,47.452 C199.028,47.648 199.9,47.815 200.854,47.966 C202.496,48.22 204.255,48.414 206.237,48.547 C207.897,48.663 209.653,48.74 211.611,48.777 C213.003,48.803 214.396,48.808 215.79,48.808 L227.709,48.808 C230.443,48.738 232.728,48.617 234.89,48.422 C236.217,48.301 237.391,48.165 238.481,47.998 C239.93,47.776 241.039,47.53 242.066,47.214 C243.432,46.793 244.635,46.221 245.642,45.512 C246.772,44.718 247.673,43.737 248.313,42.595 C248.958,41.446 249.361,40.11 249.51,38.623 C249.667,37.021 249.538,35.41 249.145,34.069" id="Fill-3"></path>
                <path d="M438.854,9.707 L438.684,9.481 L425.951,9.481 L396.869,48.808 L407.66,48.808 L413.653,40.702 L451.715,40.702 L457.926,48.808 L468.744,48.808 L438.854,9.707 Z M416.103,36.387 C421.725,28.788 427.348,21.193 432.969,13.594 C438.78,21.193 444.587,28.788 450.395,36.387 L416.103,36.387 L416.103,36.387 Z" id="Fill-4"></path>
                <path d="M319.03,22.347 C319.004,21.731 318.943,21.126 318.846,20.491 L318.228,17.879 C317.951,17.037 317.661,16.363 317.308,15.759 C316.929,15.113 316.429,14.483 315.86,13.936 C315.32,13.411 314.737,12.962 314.123,12.605 C313.568,12.274 312.95,11.981 312.234,11.704 C311.12,11.275 309.887,10.933 308.349,10.626 C307.161,10.385 305.845,10.182 304.428,10.023 C303.192,9.879 301.903,9.778 300.493,9.702 C299.184,9.634 297.879,9.594 296.57,9.563 C294.277,9.511 291.785,9.489 288.736,9.489 C285.696,9.489 283.201,9.508 280.881,9.558 C279.572,9.589 278.257,9.634 276.946,9.696 C275.503,9.769 274.216,9.866 273.008,10.002 C271.576,10.159 270.251,10.368 269.071,10.618 C268.398,10.762 267.733,10.925 267.097,11.109 C266.401,11.311 265.774,11.526 265.187,11.763 C264.496,12.039 263.859,12.355 263.292,12.705 C262.712,13.061 262.133,13.489 261.572,13.986 C260.932,14.566 260.428,15.148 260.036,15.756 C259.812,16.099 259.612,16.467 259.469,16.823 C259.339,17.139 259.232,17.468 259.116,17.925 C258.917,18.723 258.775,19.596 258.688,20.59 C258.633,21.181 258.604,21.785 258.594,22.38 C258.582,22.813 258.587,23.238 258.587,23.67 L258.589,24.141 L258.587,35.225 C258.587,35.619 258.582,36.013 258.589,36.402 C258.594,37.036 258.633,37.653 258.709,38.236 C258.872,39.51 259.218,40.691 259.73,41.75 C259.999,42.3 260.327,42.813 260.706,43.282 C261.067,43.713 261.475,44.121 261.926,44.496 C262.712,45.143 263.618,45.696 264.696,46.191 C265.589,46.594 266.56,46.942 267.67,47.253 C268.594,47.517 269.584,47.739 270.687,47.941 C272.494,48.254 274.408,48.468 276.708,48.609 C278.526,48.722 280.512,48.785 282.761,48.801 C283.432,48.808 284.104,48.808 284.775,48.808 L291.812,48.808 C292.819,48.808 293.822,48.808 294.831,48.801 C297.145,48.769 299.063,48.707 300.875,48.589 C303.235,48.437 305.155,48.231 306.929,47.941 C308.038,47.756 309.025,47.553 309.937,47.308 C311.06,47.02 312.032,46.685 312.907,46.289 C313.433,46.05 313.9,45.797 314.33,45.51 C314.789,45.206 315.256,44.827 315.72,44.383 C316.635,43.506 317.34,42.583 317.87,41.559 C318.416,40.503 318.78,39.348 318.95,38.125 C319.024,37.578 319.059,37.066 319.067,36.387 L319.067,24.024 C319.067,23.463 319.067,22.904 319.03,22.347 M310.34,23.416 L310.34,35.899 C310.34,36.38 310.335,36.862 310.302,37.329 C310.228,38.365 310,39.35 309.643,40.181 C309.261,41.073 308.683,41.886 307.975,42.533 C307.62,42.853 307.239,43.133 306.844,43.358 C306.486,43.569 306.099,43.745 305.659,43.904 C304.954,44.166 304.17,44.371 303.259,44.542 C301.87,44.804 300.341,44.96 298.441,45.033 C296.844,45.091 295.248,45.112 293.651,45.12 L291.601,45.122 L284.104,45.122 C282.693,45.12 281.022,45.107 279.311,45.033 C278.525,44.999 277.757,44.953 276.966,44.874 C276.064,44.792 275.223,44.675 274.466,44.524 C273.518,44.34 272.722,44.113 272.019,43.841 C271.59,43.674 271.214,43.495 270.862,43.282 C270.506,43.067 270.156,42.798 269.793,42.451 C269.036,41.739 268.484,40.997 268.108,40.196 C267.723,39.379 267.472,38.42 267.369,37.338 C267.324,36.862 267.317,36.375 267.317,35.889 L267.317,22.707 C267.311,22.462 267.311,22.206 267.339,21.949 C267.379,21.474 267.462,20.998 267.549,20.523 C267.631,20.083 267.719,19.644 267.816,19.207 C267.895,18.836 268.01,18.337 268.204,17.843 C268.38,17.382 268.603,16.967 268.863,16.601 C269.12,16.242 269.439,15.908 269.814,15.612 C270.139,15.358 270.489,15.136 270.88,14.93 C271.241,14.747 271.615,14.583 271.993,14.439 C272.653,14.193 273.393,13.986 274.25,13.812 C274.955,13.664 275.695,13.55 276.52,13.461 C277.271,13.384 278.029,13.333 278.784,13.298 C279.536,13.262 280.288,13.237 281.038,13.216 C282.538,13.181 284.035,13.169 285.535,13.169 L288.99,13.166 C291.368,13.166 293.746,13.174 296.129,13.231 C297.01,13.247 297.898,13.275 298.781,13.317 C299.568,13.353 300.506,13.406 301.462,13.513 C302.464,13.625 303.344,13.777 304.139,13.984 C304.89,14.177 305.867,14.478 306.789,15.063 C308.026,15.691 308.971,16.616 309.559,17.785 C309.927,18.467 310.166,19.385 310.283,20.582 C310.325,21.071 310.335,21.547 310.34,22.026 C310.34,22.493 310.34,22.958 310.34,23.416" id="Fill-5"></path>
                <path d="M219.607,-3.55271368e-15 C174.617,-3.55271368e-15 160.892,0.269 149.687,1.372 C138.452,2.471 129.917,4.42 120.233,8.094 C110.517,11.775 99.668,18.365 84.214,26.431 L83.795,26.65 C68.969,34.381 50.563,43.975 0,46.045 L0,48.022 L62.956,48.022 C99.823,46.456 120.767,36.877 137.503,28.025 C143.444,24.882 148.353,22.14 152.685,19.72 C159.292,16.02 164.517,13.107 169.718,10.847 C178.078,7.218 186.614,5.184 198.259,4.044 C210.563,2.839 226.341,2.676 241.557,2.676 L469.18,2.676 L469.18,-3.55271368e-15 L219.607,-3.55271368e-15" id="Fill-6"></path>
            </g>
        </g>
    </g>
</svg>