<svg xmlns="http://www.w3.org/2000/svg" width="16" height="16" viewBox="0 0 16 16"><g><g><path fill="#b4242a" d="M15.036 5.516h-5.56V3.902h5.56zM13.92 15.06H2.051V6.444h11.87zM.938 3.902h5.56v1.614H.937zM5.27 1.78c0-.465.38-.842.846-.842H6.5c.559 0 1.013.452 1.013 1.008v1.008H6.283a1.012 1.012 0 0 1-1.014-1.008zm4.2-.842h.219c.56 0 1.017.452 1.017 1.008S10.25 2.954 9.69 2.954H8.452V1.946c0-.556.456-1.008 1.017-1.008zM7.434 5.516V3.902h1.114v1.614zm8.538-2.551H11.35A1.953 1.953 0 0 0 9.683 0h-.218C8.872 0 8.34.266 7.983.684A1.947 1.947 0 0 0 6.5 0h-.385c-.984 0-1.784.8-1.784 1.784v.167c0 .37.104.718.285 1.014H0v3.479h1.114v9.554H14.86V6.444h1.114z"/></g></g></svg>